<?xml version="1.0" encoding="UTF-8" standalone="no"?>
<svg
   xmlns:dc="http://purl.org/dc/elements/1.1/"
   xmlns:cc="http://creativecommons.org/ns#"
   xmlns:rdf="http://www.w3.org/1999/02/22-rdf-syntax-ns#"
   xmlns:svg="http://www.w3.org/2000/svg"
   xmlns="http://www.w3.org/2000/svg"
   xmlns:sodipodi="http://sodipodi.sourceforge.net/DTD/sodipodi-0.dtd"
   xmlns:inkscape="http://www.inkscape.org/namespaces/inkscape"
   sodipodi:docname="de.lxdb.lms.svg"
   inkscape:version="1.0beta2 (unknown)"
   id="SVGRoot"
   version="1.1"
   viewBox="0 0 15.999999 15.999999"
   height="15.999999"
   width="15.999999">
  <defs
     id="defs10" />
  <sodipodi:namedview
     inkscape:document-rotation="0"
     inkscape:grid-bbox="true"
     inkscape:window-maximized="1"
     inkscape:window-y="27"
     inkscape:window-x="0"
     inkscape:window-height="1025"
     inkscape:window-width="1920"
     showgrid="false"
     inkscape:current-layer="text27"
     inkscape:document-units="px"
     inkscape:cy="9.1855067"
     inkscape:cx="6.8305105"
     inkscape:zoom="45.254835"
     inkscape:pageshadow="2"
     inkscape:pageopacity="0.0"
     borderopacity="1.0"
     bordercolor="#666666"
     pagecolor="#ffffff"
     id="base"
     fit-margin-top="0"
     fit-margin-left="0"
     fit-margin-right="0"
     fit-margin-bottom="0" />
  <metadata
     id="metadata13">
    <rdf:RDF>
      <cc:Work
         rdf:about="">
        <dc:format>image/svg+xml</dc:format>
        <dc:type
           rdf:resource="http://purl.org/dc/dcmitype/StillImage" />
        <dc:title></dc:title>
      </cc:Work>
    </rdf:RDF>
  </metadata>
  <g
     id="layer1"
     inkscape:groupmode="layer"
     inkscape:label="Ebene 1">
    <circle
       r="7.9282851"
       cy="8.0000038"
       cx="8.0000029"
       id="path23"
       style="fill:#333333;stroke:#333333;stroke-width:0.143429" />
    <g
       transform="matrix(0.0625,0,0,0.0625,3.0066611e-6,3.664553e-6)"
       aria-label="M"
       id="text27"
       style="font-style:normal;font-variant:normal;font-weight:normal;font-stretch:normal;font-size:96px;line-height:1.25;font-family:Quicksand;-inkscape-font-specification:Quicksand;letter-spacing:0px;word-spacing:0px;fill:#000000;fill-opacity:1;stroke:none">
      <path
         d="m 76.095998,63.999995 q 2.688,0 5.568,1.536 3.072,1.344 4.608,3.648 L 132.928,140.992 l -9.6,-0.384 47.808,-71.424005 q 3.648,-5.184 9.408,-5.184 4.608,0 8.256,3.264 3.648,3.264 3.648,8.448 V 186.88 q 0,4.992 -3.264,8.448 -3.264,3.264 -8.64,3.264 -5.376,0 -8.832,-3.264 -3.264,-3.456 -3.264,-8.448 V 96.447995 l 7.488,1.728 -39.168,59.712005 q -1.728,2.112 -4.416,3.648 -2.496,1.536 -5.184,1.344 -2.496,0.192 -5.184,-1.344 -2.496,-1.536 -4.224,-3.648 l -36.672002,-57.984005 4.992,-10.176 V 186.88 q 0,4.992 -3.072,8.448 -3.072,3.264 -8.064,3.264 -4.8,0 -7.872,-3.264 -3.072,-3.456 -3.072,-8.448 V 75.711995 q 0,-4.8 3.456,-8.256 3.648,-3.456 8.64,-3.456 z"
         style="font-style:normal;font-variant:normal;font-weight:bold;font-stretch:normal;font-size:192px;font-family:Quicksand;-inkscape-font-specification:'Quicksand Bold';fill:#ffffff"
         id="path10"
         inkscape:connector-curvature="0" />
    </g>
  </g>
</svg>
