<?xml version="1.0" encoding="UTF-8" standalone="no"?>
<svg
   xmlns:dc="http://purl.org/dc/elements/1.1/"
   xmlns:cc="http://creativecommons.org/ns#"
   xmlns:rdf="http://www.w3.org/1999/02/22-rdf-syntax-ns#"
   xmlns:svg="http://www.w3.org/2000/svg"
   xmlns="http://www.w3.org/2000/svg"
   xmlns:sodipodi="http://sodipodi.sourceforge.net/DTD/sodipodi-0.dtd"
   xmlns:inkscape="http://www.inkscape.org/namespaces/inkscape"
   width="256mm"
   height="256mm"
   viewBox="0 0 256 256"
   version="1.1"
   id="svg755"
   inkscape:version="1.0beta2 (unknown)"
   sodipodi:docname="de.lxdb.lms.svg">
  <defs
     id="defs750">
    <rect
       x="56.865768"
       y="57.005669"
       width="179.33368"
       height="230.57425"
       id="rect769" />
    <rect
       x="68.809375"
       y="60.668095"
       width="149.56862"
       height="148.28447"
       id="rect763" />
  </defs>
  <sodipodi:namedview
     fit-margin-bottom="0"
     fit-margin-right="0"
     fit-margin-left="0"
     fit-margin-top="0"
     id="base"
     pagecolor="#ffffff"
     bordercolor="#666666"
     borderopacity="1.0"
     inkscape:pageopacity="0.0"
     inkscape:pageshadow="2"
     inkscape:zoom="0.49497475"
     inkscape:cx="438.58556"
     inkscape:cy="515.83767"
     inkscape:document-units="mm"
     inkscape:document-rotation="0"
     showgrid="false"
     inkscape:window-width="1920"
     inkscape:window-height="1025"
     inkscape:window-x="0"
     inkscape:window-y="27"
     inkscape:window-maximized="1"
     inkscape:current-layer="svg755" />
  <metadata
     id="metadata753">
    <rdf:RDF>
      <cc:Work
         rdf:about="">
        <dc:format>image/svg+xml</dc:format>
        <dc:type
           rdf:resource="http://purl.org/dc/dcmitype/StillImage" />
        <dc:title></dc:title>
      </cc:Work>
    </rdf:RDF>
  </metadata>
  <circle
     style="fill:#000000;stroke:#000000;stroke-width:0.442302"
     id="path757"
     cx="128"
     cy="128"
     r="127.77885" />
  <circle
     style="fill:#ffffff;stroke:#ffffff;stroke-width:0.392891"
     id="path759"
     cx="128"
     cy="128"
     r="111.80355" />
  <text
     xml:space="preserve"
     id="text761"
     style="font-style:normal;font-weight:bold;font-size:50.8px;line-height:1.25;font-family:Quicksand;letter-spacing:0px;word-spacing:0px;white-space:pre;shape-inside:url(#rect763);fill:#000000;fill-opacity:1;stroke:none;-inkscape-font-specification:'Quicksand Bold';font-stretch:normal;font-variant:normal;" />
  <g
     style="font-style:normal;font-variant:normal;font-weight:bold;font-stretch:normal;font-size:180.622px;line-height:1.25;font-family:Quicksand;-inkscape-font-specification:'Quicksand Bold';letter-spacing:0px;word-spacing:0px;white-space:pre;shape-inside:url(#rect769);fill:#000000;fill-opacity:1;stroke:none"
     id="text767"
     transform="matrix(0.7621647,0,0,0.7621647,-18.053435,6.1176046)"
     aria-label="M">
    <path
       id="path109"
       style=""
       d="m 81.79107,97.465186 q 2.528707,0 5.238037,1.444976 2.889952,1.264358 4.334928,3.431818 l 43.891145,67.55263 -9.0311,-0.36125 44.97488,-67.19138 q 3.43181,-4.876794 8.85047,-4.876794 4.33493,0 7.76675,3.070574 3.43182,3.07057 3.43182,7.94737 v 104.58013 q 0,4.69617 -3.07058,7.94737 -3.07057,3.07057 -8.12799,3.07057 -5.05741,0 -8.30861,-3.07057 -3.07057,-3.2512 -3.07057,-7.94737 V 127.9903 l 7.04426,1.6256 -36.84689,56.17344 q -1.6256,1.98684 -4.15431,3.43182 -2.34808,1.44497 -4.87679,1.26435 -2.34809,0.18062 -4.87679,-1.26435 -2.34809,-1.44498 -3.97369,-3.43182 l -34.498799,-54.54784 4.696172,-9.57297 v 91.39473 q 0,4.69617 -2.889952,7.94737 -2.889952,3.07057 -7.586123,3.07057 -4.51555,0 -7.405502,-3.07057 -2.889952,-3.2512 -2.889952,-7.94737 V 108.48313 q 0,-4.51555 3.251196,-7.76675 3.431818,-3.251194 8.12799,-3.251194 z" />
  </g>
  <g
     transform="matrix(1.8266514,0,0,1.7797376,185.25752,141.97794)"
     id="g13060">
    <path
       inkscape:connector-curvature="0"
       style="fill:#dc322f;stroke-width:0.789979"
       d="m 5.1666264,17.403508 c -0.988455,0 -1.929541,-0.404057 -2.62746,-1.061404 L -9.8907442,4.8596484 c -1.4558408,-1.353892 -1.4558408,-3.56716 0,-4.92105205 1.4558404,-1.35389225 3.799081,-1.35389225 5.2549214,0 L 1.9328294,6.0175434 V -32.000001 h 6.467595 V 6.0175434 l 6.5686516,-6.07894705 c 1.067406,-1.02823435 2.725359,-1.32976945 4.143303,-0.7719298 1.417945,0.5578397 2.270607,1.84539485 2.223236,3.28070185 -0.02842,0.90159 -0.423173,1.791118 -1.111618,2.41228 L 7.7940874,16.342104 c -0.697919,0.657347 -1.639005,1.061404 -2.627461,1.061404 z"
       id="path13037" />
    <g
       transform="translate(-26.802264,-35.368421)"
       style="fill:#268bd2;fill-rule:evenodd"
       id="g13045">
      <path
         inkscape:connector-curvature="0"
         d="m 16,48 c 0,-4.417969 -3.582031,-8 -8,-8 -4.417969,0 -8,3.582031 -8,8 0,4.417969 3.582031,8 8,8 4.417969,0 8,-3.582031 8,-8 z"
         id="path13039" />
      <path
         inkscape:connector-curvature="0"
         d="m 16,28 c 0,-4.417969 -3.582031,-8 -8,-8 -4.417969,0 -8,3.582031 -8,8 0,4.417969 3.582031,8 8,8 4.417969,0 8,-3.582031 8,-8 z"
         id="path13041" />
      <path
         inkscape:connector-curvature="0"
         d="M 16,8 C 16,3.582031 12.417969,0 8,0 3.582031,0 0,3.582031 0,8 c 0,4.417969 3.582031,8 8,8 4.417969,0 8,-3.582031 8,-8 z"
         id="path13043" />
    </g>
  </g>
  <text
     id="text107"
     y="104.90627"
     x="115.86996"
     style="font-style:normal;font-weight:normal;font-size:10.5833px;line-height:1.25;font-family:sans-serif;fill:#000000;fill-opacity:1;stroke:none;stroke-width:0.264583"
     xml:space="preserve"><tspan
       style="stroke-width:0.264583"
       y="104.90627"
       x="115.86996"
       id="tspan105"
       sodipodi:role="line">z</tspan></text>
</svg>
